<svg width="auto" height="auto" viewBox="0 0 400 400" fill="none" xmlns="http://www.w3.org/2000/svg">
<path d="M401 200.5C401 311.233 311.233 401 200.5 401C89.7669 401 0 311.233 0 200.5C0 89.7669 89.7669 0 200.5 0C311.233 0 401 89.7669 401 200.5Z" fill="black"/>
<path d="M148 247H252V259H148V247Z" fill="white"/>
<path d="M252 247H356V259H252V247Z" fill="#A80000"/>
<path d="M44 247H148V259H44V247Z" fill="#009246"/>
<path d="M286.654 146.3C288.422 144.179 291.575 143.892 293.697 145.66C295.968 147.553 297.998 150.53 299.456 153.882C300.947 157.312 301.996 161.488 301.996 166.001C301.996 168.763 299.757 171.001 296.996 171.001C294.234 171.001 291.996 168.763 291.996 166.001C291.996 163.014 291.294 160.191 290.285 157.87C289.243 155.472 288.023 153.95 287.295 153.342C285.173 151.574 284.887 148.422 286.654 146.3Z" fill="#A80000"/>
<path d="M221.496 103.001C218.734 103.001 216.496 105.24 216.496 108.001C216.496 110.763 218.734 113.001 221.496 113.001C237.248 113.001 260.71 119.508 278.607 141.645C280.344 143.792 283.492 144.125 285.639 142.389C287.787 140.653 288.12 137.505 286.384 135.357C266.281 110.494 239.743 103.001 221.496 103.001Z" fill="#A80000"/>
<path fill-rule="evenodd" clip-rule="evenodd" d="M294.786 77.9124C287.706 72.3142 277.614 69.3093 264.122 71.7803C260.357 66.5932 254.254 60.9525 246.059 58.0151C236.468 54.5774 224.656 55.0765 211.487 63.1446C203.888 59.5698 193.091 56.0586 182.552 56.0219C176.583 56.0011 170.426 57.0949 164.97 60.1902C160.715 62.6046 157.081 66.1287 154.359 70.902C148.791 68.9694 141.658 67.9784 134.609 70.0958C125.573 72.81 117.868 80.2493 113.84 94.2426C108.049 95.0547 100.89 97.2417 94.8947 101.714C87.9768 106.875 82.8487 114.944 83.0649 126.466C78.4534 128.483 73.3223 132.035 69.894 137.523C65.5507 144.475 64.4484 153.707 69.1501 164.986C66.5751 169.283 63.7174 175.184 62.1658 181.244C60.38 188.219 59.8828 197.321 66.3572 203.501C67.2873 204.389 68.5237 204.884 69.8095 204.884H345.31C346.605 204.884 347.85 204.381 348.783 203.481C351.971 200.403 355.356 194.869 355.667 187.856C355.948 181.515 353.695 174.549 347.577 167.665C350.088 162.865 352.059 156.399 351.318 149.524C350.408 141.076 345.504 132.9 334.635 126.961C334.898 121.46 333.923 114.541 330.224 108.365C325.851 101.064 318.056 95.4469 305.802 94.1458C304.145 88.8021 300.713 82.5995 294.786 77.9124ZM214.612 73.0249C226.446 65.0146 235.832 64.9725 242.685 67.4287C249.846 69.9954 255.006 75.5742 257.473 79.8727C258.58 81.802 260.828 82.7681 262.99 82.2432C275.731 79.1487 283.678 81.8775 288.583 85.7564C293.713 89.8124 296.205 95.6719 296.878 99.7064C297.27 102.06 299.271 103.809 301.656 103.882C313.168 104.236 318.792 108.74 321.645 113.504C324.709 118.619 325.074 124.886 324.378 129.062C324.006 131.291 325.175 133.491 327.229 134.431C337.678 139.213 340.814 145.375 341.376 150.595C341.988 156.278 339.667 162.012 337.213 165.517C335.792 167.548 336.073 170.313 337.874 172.017C344.412 178.202 345.848 183.567 345.677 187.413C345.539 190.513 344.338 193.117 343.046 194.884H326.539C326.225 176.728 320.47 151.31 304.424 129.489C286.722 105.417 256.774 86.1212 209.061 85.5015C179.371 85.1159 156.955 91.8377 140.068 102.456C123.198 113.064 112.171 127.356 104.915 141.607C97.6734 155.829 94.1516 170.074 92.2741 180.761C91.3339 186.113 90.8008 190.608 90.4306 193.738C90.3817 194.151 90.3365 194.533 90.2944 194.884H72.1731C70.7702 192.492 70.5563 188.79 71.8533 183.724C73.3579 177.848 76.5147 171.841 78.9698 168.158C79.9508 166.686 80.0815 164.806 79.3134 163.213C74.5176 153.266 75.8438 146.873 78.375 142.821C81.1304 138.411 85.9737 135.723 89.6478 134.702C92.0252 134.042 93.5654 131.746 93.2747 129.295C92.0981 119.378 95.8682 113.464 100.874 109.729C106.203 105.754 113.22 104.098 118.037 103.879C120.285 103.777 122.188 102.185 122.686 99.9897C125.793 86.2811 131.996 81.3219 137.485 79.673C143.458 77.8788 150.126 79.5243 154.487 81.8121C155.749 82.4741 157.233 82.5662 158.567 82.0653C159.901 81.5645 160.958 80.5182 161.472 79.1894C163.478 74.0071 166.475 70.834 169.905 68.8879C173.422 66.8926 177.727 66.0052 182.517 66.0219C192.205 66.0556 202.75 69.7872 209.491 73.3145C211.122 74.1676 213.089 74.0563 214.612 73.0249ZM316.53 194.501H100.41C100.774 191.43 101.274 187.326 102.123 182.491C103.902 172.366 107.193 159.173 113.826 146.145C120.445 133.146 130.356 120.376 145.391 110.921C160.411 101.477 180.87 95.1363 208.931 95.5007C253.617 96.081 280.586 113.952 296.367 135.413C310.847 155.103 316.141 178.149 316.53 194.501Z" fill="#A80000"/>
<path d="M83.9375 196.75C83.6771 200.031 83.1562 203.339 82.375 206.672C81.5938 209.953 80.6042 213.13 79.4062 216.203C78.2604 219.276 76.9062 222.141 75.3438 224.797C73.7812 227.505 72.0365 229.849 70.1094 231.828C68.2344 233.807 66.2031 235.37 64.0156 236.516C61.8802 237.661 59.6406 238.234 57.2969 238.234C56.8281 238.234 56.099 238.13 55.1094 237.922C54.1719 237.766 53.1562 237.349 52.0625 236.672C50.9688 236.047 49.849 235.109 48.7031 233.859C47.6094 232.609 46.6458 230.917 45.8125 228.781C44.9792 226.698 44.3802 224.094 44.0156 220.969C43.651 217.844 43.651 214.068 44.0156 209.641C44.6406 202.661 45.9167 196.333 47.8438 190.656C49.8229 184.927 52.0625 180.031 54.5625 175.969C57.1146 171.906 59.7448 168.781 62.4531 166.594C65.1615 164.354 67.5573 163.234 69.6406 163.234C70.474 163.234 71.151 163.417 71.6719 163.781C72.2448 164.094 72.6875 164.51 73 165.031C73.3646 164.927 73.7812 164.849 74.25 164.797C74.7188 164.745 75.2396 164.719 75.8125 164.719C77.3229 164.719 78.651 165.5 79.7969 167.062C80.9948 168.625 81.9583 170.812 82.6875 173.625C83.4688 176.438 83.9635 179.823 84.1719 183.781C84.4323 187.688 84.3542 192.01 83.9375 196.75ZM57.5312 233.703C59.5625 233.703 61.6458 232.661 63.7812 230.578C65.9167 228.495 67.8958 225.682 69.7188 222.141C71.5417 218.547 73.1042 214.38 74.4062 209.641C75.7083 204.901 76.5938 199.875 77.0625 194.562C77.1667 193.156 77.2448 191.542 77.2969 189.719C77.349 187.896 77.349 186.047 77.2969 184.172C77.2448 182.297 77.1146 180.448 76.9062 178.625C76.75 176.75 76.5156 175.109 76.2031 173.703C75.8906 172.297 75.5 171.151 75.0312 170.266C74.5625 169.38 74.0156 168.938 73.3906 168.938C72.7135 168.99 72.0365 169.198 71.3594 169.562C70.7865 169.875 70.1094 170.396 69.3281 171.125C68.599 171.802 67.8698 172.766 67.1406 174.016C66.9844 173.911 66.8542 173.755 66.75 173.547C66.6979 173.339 66.6198 173.13 66.5156 172.922C66.4115 172.714 66.3333 172.479 66.2812 172.219C66.1771 172.062 66.125 171.88 66.125 171.672C66.125 171.411 66.099 171.125 66.0469 170.812C65.0052 171.958 63.7552 173.599 62.2969 175.734C60.8906 177.818 59.4583 180.422 58 183.547C56.5938 186.672 55.2917 190.37 54.0938 194.641C52.9479 198.859 52.1406 203.677 51.6719 209.094C51.2552 213.885 51.151 217.87 51.3594 221.047C51.5677 224.224 51.9583 226.75 52.5312 228.625C53.1562 230.5 53.9115 231.802 54.7969 232.531C55.6823 233.312 56.5938 233.703 57.5312 233.703Z" fill="white"/>
<path d="M106.828 234.172C107.036 234.016 107.375 233.755 107.844 233.391C108.26 233.026 108.781 232.349 109.406 231.359C109.979 230.37 110.63 228.938 111.359 227.062C112.089 225.188 112.844 222.635 113.625 219.406C114.042 217.688 114.589 215.5 115.266 212.844C115.943 210.188 116.672 207.349 117.453 204.328C118.286 201.307 119.12 198.208 119.953 195.031C120.786 191.802 121.594 188.755 122.375 185.891C123.156 182.974 123.859 180.344 124.484 178C125.109 175.656 125.604 173.833 125.969 172.531C124.979 173.156 124.016 173.859 123.078 174.641C122.245 175.318 121.359 176.099 120.422 176.984C119.484 177.818 118.573 178.703 117.688 179.641C117.01 179.068 116.49 178.443 116.125 177.766C115.917 177.453 115.734 177.115 115.578 176.75C115.266 175.969 115.109 175.161 115.109 174.328C115.109 173.495 115.76 172.635 117.062 171.75C117.74 171.281 118.755 170.604 120.109 169.719C121.516 168.833 123.234 167.974 125.266 167.141C127.297 166.255 129.667 165.5 132.375 164.875C135.083 164.25 138.078 163.938 141.359 163.938C144.641 163.938 147.271 164.589 149.25 165.891C151.281 167.193 152.818 168.781 153.859 170.656C154.953 172.531 155.656 174.51 155.969 176.594C156.281 178.677 156.359 180.5 156.203 182.062C155.891 184.979 154.953 188.026 153.391 191.203C151.828 194.38 149.667 197.323 146.906 200.031C144.146 202.688 140.786 204.953 136.828 206.828C132.87 208.703 128.339 209.771 123.234 210.031C122.818 212.01 122.401 214.042 121.984 216.125C121.568 218.208 121.125 220.266 120.656 222.297C120.188 224.276 119.693 226.125 119.172 227.844C118.703 229.615 118.208 231.125 117.688 232.375C117.167 233.729 116.49 234.797 115.656 235.578C114.823 236.411 113.495 236.828 111.672 236.828C110.734 236.828 109.875 236.594 109.094 236.125C108.26 235.656 107.505 235.005 106.828 234.172ZM125.344 198.547C125.188 199.38 124.979 200.474 124.719 201.828C124.51 203.13 124.25 204.615 123.938 206.281C125.344 206.073 126.906 205.708 128.625 205.188C130.344 204.615 132.062 203.859 133.781 202.922C135.5 201.984 137.167 200.865 138.781 199.562C140.448 198.208 141.958 196.672 143.312 194.953C144.667 193.182 145.786 191.203 146.672 189.016C147.609 186.776 148.208 184.302 148.469 181.594C148.729 178.99 148.573 176.828 148 175.109C147.479 173.339 146.698 171.932 145.656 170.891C144.615 169.797 143.417 169.042 142.062 168.625C140.708 168.156 139.354 167.922 138 167.922C136.698 167.922 135.422 168.104 134.172 168.469C132.922 168.833 131.672 169.302 130.422 169.875C130.578 169.927 130.76 170.057 130.969 170.266C131.281 170.578 131.516 171.021 131.672 171.594C130.422 176.646 129.38 180.865 128.547 184.25C127.766 187.635 127.141 190.396 126.672 192.531C126.099 195.031 125.656 197.036 125.344 198.547Z" fill="white"/>
<path d="M195.109 207.453C194.38 208.495 193.443 209.797 192.297 211.359C191.151 212.87 189.953 214.406 188.703 215.969C187.505 217.479 186.307 218.885 185.109 220.188C183.964 221.438 183 222.323 182.219 222.844C181.698 223.156 181.099 223.417 180.422 223.625C179.745 223.833 179.042 223.964 178.312 224.016C177.635 224.068 176.984 224.016 176.359 223.859C175.734 223.755 175.188 223.547 174.719 223.234C174.25 222.87 173.859 222.349 173.547 221.672C173.286 221.099 173.026 220.344 172.766 219.406C172.557 218.469 172.479 217.297 172.531 215.891C171.281 217.974 169.901 219.589 168.391 220.734C166.88 221.828 165.448 222.635 164.094 223.156C162.531 223.729 160.969 224.068 159.406 224.172C158.677 224.172 157.896 223.911 157.062 223.391C156.229 222.922 155.526 222.167 154.953 221.125C154.38 220.031 154.016 218.651 153.859 216.984C153.703 215.266 153.911 213.234 154.484 210.891C155.214 207.714 156.359 204.823 157.922 202.219C159.536 199.615 161.281 197.401 163.156 195.578C165.031 193.703 166.88 192.297 168.703 191.359C170.526 190.422 172.036 190.005 173.234 190.109C174.641 190.37 175.786 190.786 176.672 191.359C177.401 191.88 177.87 192.661 178.078 193.703C178.339 194.693 177.922 196.021 176.828 197.688C177.557 197.531 178.156 197.427 178.625 197.375C179.146 197.323 179.536 197.297 179.797 197.297C180.109 197.297 180.318 197.323 180.422 197.375C180.474 197.479 180.5 197.714 180.5 198.078C180.5 198.391 180.422 198.99 180.266 199.875C180.109 200.76 179.875 201.958 179.562 203.469C179.25 204.979 178.833 206.932 178.312 209.328C178.208 209.797 178.104 210.24 178 210.656C177.948 211.021 177.87 211.411 177.766 211.828C177.714 212.193 177.635 212.635 177.531 213.156C177.427 213.677 177.297 214.328 177.141 215.109C177.089 215.578 177.062 216.099 177.062 216.672C177.115 217.193 177.219 217.688 177.375 218.156C177.531 218.625 177.766 219.016 178.078 219.328C178.443 219.589 178.938 219.719 179.562 219.719C180.083 219.719 180.76 219.406 181.594 218.781C182.427 218.104 183.312 217.271 184.25 216.281C185.188 215.24 186.151 214.12 187.141 212.922C188.182 211.672 189.146 210.474 190.031 209.328C190.917 208.182 191.698 207.167 192.375 206.281C193.104 205.396 193.625 204.745 193.938 204.328C194.354 203.859 194.771 203.599 195.188 203.547C195.604 203.443 195.917 203.547 196.125 203.859C196.333 204.172 196.359 204.641 196.203 205.266C196.099 205.891 195.734 206.62 195.109 207.453ZM172.219 210.891C172.479 209.849 172.792 208.625 173.156 207.219C173.521 205.812 173.833 204.458 174.094 203.156C174.354 201.854 174.536 200.786 174.641 199.953C174.797 199.068 174.771 198.651 174.562 198.703C174.302 198.755 174.016 198.833 173.703 198.938C173.443 199.042 173.104 199.12 172.688 199.172C172.271 199.224 171.854 199.302 171.438 199.406C171.854 198.573 172.089 197.896 172.141 197.375C172.245 196.802 172.271 196.359 172.219 196.047C172.167 195.682 172.062 195.396 171.906 195.188C171.333 194.719 170.318 195.109 168.859 196.359C167.453 197.557 165.812 199.797 163.938 203.078C163.156 204.432 162.531 205.891 162.062 207.453C161.594 208.964 161.255 210.396 161.047 211.75C160.891 213.104 160.865 214.302 160.969 215.344C161.073 216.333 161.281 216.984 161.594 217.297C162.167 217.87 162.818 218.156 163.547 218.156C164.276 218.104 165.005 217.896 165.734 217.531C166.516 217.115 167.271 216.594 168 215.969C168.781 215.344 169.458 214.693 170.031 214.016C170.656 213.339 171.151 212.714 171.516 212.141C171.932 211.568 172.167 211.151 172.219 210.891Z" fill="white"/>
<path d="M200.891 220.344C201.203 220.552 201.594 220.656 202.062 220.656C202.583 220.656 203.078 220.552 203.547 220.344C204.068 220.135 204.536 219.849 204.953 219.484C205.422 219.12 205.76 218.651 205.969 218.078C206.177 217.505 206.177 216.698 205.969 215.656C205.76 214.562 205.422 213.417 204.953 212.219C204.536 210.969 204.068 209.719 203.547 208.469C203.026 207.219 202.583 206.073 202.219 205.031C201.906 204.25 201.646 203.521 201.438 202.844C201.229 202.271 201.021 201.724 200.812 201.203C200.656 200.63 200.526 200.24 200.422 200.031C200.161 200.448 199.693 201.125 199.016 202.062C198.391 203 197.688 203.99 196.906 205.031C196.177 206.021 195.474 206.958 194.797 207.844C194.12 208.677 193.651 209.25 193.391 209.562C192.974 210.031 192.557 210.318 192.141 210.422C191.776 210.474 191.464 210.396 191.203 210.188C190.943 209.927 190.786 209.589 190.734 209.172C190.734 208.703 190.943 208.156 191.359 207.531C191.672 207.115 192.141 206.464 192.766 205.578C193.391 204.641 194.016 203.703 194.641 202.766C195.266 201.776 195.839 200.917 196.359 200.188C196.88 199.406 197.167 198.938 197.219 198.781C197.323 198.365 197.167 197.818 196.75 197.141C196.385 196.464 196.333 195.682 196.594 194.797C196.802 194.068 197.271 193.234 198 192.297C198.729 191.307 199.589 190.422 200.578 189.641C201.568 188.859 202.583 188.286 203.625 187.922C204.667 187.505 205.604 187.505 206.438 187.922C207.115 188.339 207.661 188.807 208.078 189.328C208.495 189.797 208.651 190.292 208.547 190.812C208.443 191.073 208.286 191.411 208.078 191.828C207.87 192.245 207.557 192.766 207.141 193.391C206.724 193.964 206.125 194.719 205.344 195.656C205.5 196.854 205.708 197.948 205.969 198.938C206.281 199.927 206.568 200.786 206.828 201.516C207.141 202.401 207.479 203.208 207.844 203.938C208.312 204.875 208.807 205.839 209.328 206.828C209.849 207.818 210.318 208.807 210.734 209.797C211.151 210.734 211.49 211.62 211.75 212.453C212.01 213.286 212.089 213.99 211.984 214.562C211.828 215.448 211.359 216.516 210.578 217.766C209.849 219.016 208.911 220.24 207.766 221.438C206.672 222.583 205.396 223.573 203.938 224.406C202.531 225.24 201.047 225.656 199.484 225.656C198.391 225.656 197.323 225.318 196.281 224.641C195.292 223.964 194.432 223.182 193.703 222.297C193.026 221.359 192.505 220.448 192.141 219.562C191.828 218.677 191.802 218 192.062 217.531C192.375 216.906 192.661 216.411 192.922 216.047C193.182 215.682 193.573 215.266 194.094 214.797C194.302 214.641 194.562 214.458 194.875 214.25C195.135 214.094 195.5 213.938 195.969 213.781C196.438 213.625 196.984 213.443 197.609 213.234C198.13 214.849 198.599 216.125 199.016 217.062C199.432 217.948 199.771 218.651 200.031 219.172C200.344 219.745 200.63 220.135 200.891 220.344Z" fill="white"/>
<path d="M246.828 203.234C247.036 202.922 247.297 202.74 247.609 202.688C247.974 202.583 248.26 202.609 248.469 202.766C248.677 202.922 248.781 203.182 248.781 203.547C248.833 203.911 248.703 204.406 248.391 205.031C247.349 207.01 245.969 209.146 244.25 211.438C242.583 213.729 240.812 215.891 238.938 217.922C237.062 219.901 235.24 221.542 233.469 222.844C231.698 224.146 230.214 224.797 229.016 224.797C227.297 224.797 225.865 224.458 224.719 223.781C223.573 223.104 222.661 222.271 221.984 221.281C221.359 220.292 220.917 219.224 220.656 218.078C220.396 216.88 220.318 215.786 220.422 214.797C220.474 213.964 220.656 212.479 220.969 210.344C221.281 208.156 221.698 205.656 222.219 202.844C222.74 199.979 223.312 196.932 223.938 193.703C224.615 190.422 225.318 187.271 226.047 184.25C225.161 184.354 224.276 184.458 223.391 184.562C222.505 184.667 221.698 184.719 220.969 184.719C219.302 184.719 217.74 184.536 216.281 184.172C214.771 183.755 213.651 183.365 212.922 183C212.505 182.792 212.323 182.505 212.375 182.141C212.427 181.724 212.583 181.333 212.844 180.969C213.104 180.552 213.443 180.214 213.859 179.953C214.224 179.641 214.562 179.484 214.875 179.484C215.865 179.589 216.932 179.693 218.078 179.797C219.224 179.849 220.474 179.849 221.828 179.797C222.818 179.745 223.755 179.667 224.641 179.562C225.578 179.458 226.49 179.328 227.375 179.172C228.052 176.672 228.703 174.51 229.328 172.688C230.005 170.812 230.604 169.51 231.125 168.781C231.281 168.521 231.62 168.312 232.141 168.156C232.714 167.948 233.312 167.818 233.938 167.766C234.562 167.661 235.161 167.661 235.734 167.766C236.307 167.818 236.724 168 236.984 168.312C237.245 168.729 237.349 169.797 237.297 171.516C237.245 173.234 236.958 175.422 236.438 178.078C238.625 178.078 240.552 178.208 242.219 178.469C243.938 178.677 245.396 178.938 246.594 179.25C247.792 179.51 248.755 179.797 249.484 180.109C250.214 180.37 250.76 180.552 251.125 180.656C251.49 180.76 251.672 181.021 251.672 181.438C251.724 181.854 251.646 182.297 251.438 182.766C251.281 183.182 250.995 183.547 250.578 183.859C250.161 184.172 249.693 184.276 249.172 184.172C248.651 184.12 248.052 184.016 247.375 183.859C246.75 183.703 245.969 183.573 245.031 183.469C244.146 183.365 243.078 183.26 241.828 183.156C240.578 183.052 239.12 183 237.453 183C237.141 183 236.776 183.026 236.359 183.078C235.995 183.078 235.604 183.078 235.188 183.078C234.979 183.911 234.771 184.745 234.562 185.578C234.406 186.359 234.172 187.193 233.859 188.078C233.182 190.161 232.401 192.427 231.516 194.875C230.734 197.01 229.797 199.458 228.703 202.219C227.609 204.979 226.385 207.922 225.031 211.047C224.719 213.286 224.745 215.005 225.109 216.203C225.526 217.349 226.021 218.182 226.594 218.703C227.271 219.276 228.104 219.589 229.094 219.641C229.875 219.745 230.812 219.484 231.906 218.859C233.052 218.182 234.224 217.297 235.422 216.203C236.62 215.109 237.818 213.911 239.016 212.609C240.266 211.307 241.411 210.031 242.453 208.781C243.495 207.531 244.406 206.411 245.188 205.422C245.969 204.38 246.516 203.651 246.828 203.234Z" fill="white"/>
<path d="M277.531 206.75C275.969 209.042 274.198 211.281 272.219 213.469C270.24 215.604 268.13 217.531 265.891 219.25C263.703 220.917 261.438 222.271 259.094 223.312C256.802 224.354 254.562 224.875 252.375 224.875C251.229 224.875 249.979 224.589 248.625 224.016C247.323 223.495 246.125 222.661 245.031 221.516C243.938 220.37 243.052 218.885 242.375 217.062C241.75 215.24 241.568 213.026 241.828 210.422C242.036 208.286 242.688 206.047 243.781 203.703C244.927 201.307 246.307 199.12 247.922 197.141C249.589 195.161 251.438 193.521 253.469 192.219C255.552 190.917 257.635 190.266 259.719 190.266C261.698 190.266 263.13 190.76 264.016 191.75C264.901 192.74 265.292 193.964 265.188 195.422C265.031 197.036 264.562 198.521 263.781 199.875C263.052 201.229 262.167 202.453 261.125 203.547C260.083 204.641 258.964 205.63 257.766 206.516C256.62 207.401 255.526 208.208 254.484 208.938C253.339 209.719 252.245 210.474 251.203 211.203C250.161 211.88 249.25 212.505 248.469 213.078C248.521 214.38 248.755 215.474 249.172 216.359C249.589 217.245 250.109 217.974 250.734 218.547C251.359 219.068 252.062 219.458 252.844 219.719C253.677 219.927 254.51 220.031 255.344 220.031C257.115 220.031 258.964 219.484 260.891 218.391C262.818 217.245 264.693 215.891 266.516 214.328C268.391 212.714 270.109 211.047 271.672 209.328C273.286 207.609 274.615 206.125 275.656 204.875C276.021 204.458 276.385 204.224 276.75 204.172C277.167 204.068 277.479 204.12 277.688 204.328C277.948 204.484 278.078 204.797 278.078 205.266C278.078 205.682 277.896 206.177 277.531 206.75ZM257.531 194.719C256.906 194.719 256.151 195.031 255.266 195.656C254.432 196.281 253.599 197.193 252.766 198.391C251.932 199.536 251.151 200.969 250.422 202.688C249.693 204.354 249.146 206.281 248.781 208.469C249.406 208 250.083 207.531 250.812 207.062C251.542 206.542 252.271 205.995 253 205.422C255.24 203.703 256.802 202.193 257.688 200.891C258.573 199.589 259.068 198.469 259.172 197.531C259.276 196.542 259.172 195.839 258.859 195.422C258.547 194.953 258.104 194.719 257.531 194.719Z" fill="white"/>
<path d="M270.734 221.75C273.026 212.115 274.849 204.38 276.203 198.547C277.609 192.714 278.677 188.26 279.406 185.188C280.24 181.542 280.812 179.016 281.125 177.609C281.281 176.62 281.411 175.656 281.516 174.719C281.62 173.885 281.672 173.026 281.672 172.141C281.672 171.255 281.594 170.448 281.438 169.719C281.854 169.458 282.297 169.25 282.766 169.094C283.286 168.938 283.781 168.807 284.25 168.703C284.823 168.547 285.396 168.417 285.969 168.312C286.542 168.208 287.062 168.156 287.531 168.156C287.948 168.156 288.339 168.208 288.703 168.312C289.068 168.365 289.302 168.521 289.406 168.781C289.719 169.042 289.849 169.562 289.797 170.344C289.797 171.125 289.745 171.932 289.641 172.766C289.432 173.755 289.198 174.823 288.938 175.969C288.312 178.208 287.453 181.438 286.359 185.656C285.422 189.25 284.146 194.146 282.531 200.344C280.969 206.542 278.99 214.354 276.594 223.781C276.333 224.042 276.021 224.224 275.656 224.328C275.292 224.432 274.953 224.484 274.641 224.484C274.276 224.484 273.885 224.458 273.469 224.406C273.104 224.302 272.74 224.146 272.375 223.938C272.062 223.729 271.75 223.443 271.438 223.078C271.125 222.766 270.891 222.323 270.734 221.75Z" fill="white"/>
<path d="M329.484 207.453C328.755 208.495 327.818 209.797 326.672 211.359C325.526 212.87 324.328 214.406 323.078 215.969C321.88 217.479 320.682 218.885 319.484 220.188C318.339 221.438 317.375 222.323 316.594 222.844C316.073 223.156 315.474 223.417 314.797 223.625C314.12 223.833 313.417 223.964 312.688 224.016C312.01 224.068 311.359 224.016 310.734 223.859C310.109 223.755 309.562 223.547 309.094 223.234C308.625 222.87 308.234 222.349 307.922 221.672C307.661 221.099 307.401 220.344 307.141 219.406C306.932 218.469 306.854 217.297 306.906 215.891C305.656 217.974 304.276 219.589 302.766 220.734C301.255 221.828 299.823 222.635 298.469 223.156C296.906 223.729 295.344 224.068 293.781 224.172C293.052 224.172 292.271 223.911 291.438 223.391C290.604 222.922 289.901 222.167 289.328 221.125C288.755 220.031 288.391 218.651 288.234 216.984C288.078 215.266 288.286 213.234 288.859 210.891C289.589 207.714 290.734 204.823 292.297 202.219C293.911 199.615 295.656 197.401 297.531 195.578C299.406 193.703 301.255 192.297 303.078 191.359C304.901 190.422 306.411 190.005 307.609 190.109C309.016 190.37 310.161 190.786 311.047 191.359C311.776 191.88 312.245 192.661 312.453 193.703C312.714 194.693 312.297 196.021 311.203 197.688C311.932 197.531 312.531 197.427 313 197.375C313.521 197.323 313.911 197.297 314.172 197.297C314.484 197.297 314.693 197.323 314.797 197.375C314.849 197.479 314.875 197.714 314.875 198.078C314.875 198.391 314.797 198.99 314.641 199.875C314.484 200.76 314.25 201.958 313.938 203.469C313.625 204.979 313.208 206.932 312.688 209.328C312.583 209.797 312.479 210.24 312.375 210.656C312.323 211.021 312.245 211.411 312.141 211.828C312.089 212.193 312.01 212.635 311.906 213.156C311.802 213.677 311.672 214.328 311.516 215.109C311.464 215.578 311.438 216.099 311.438 216.672C311.49 217.193 311.594 217.688 311.75 218.156C311.906 218.625 312.141 219.016 312.453 219.328C312.818 219.589 313.312 219.719 313.938 219.719C314.458 219.719 315.135 219.406 315.969 218.781C316.802 218.104 317.688 217.271 318.625 216.281C319.562 215.24 320.526 214.12 321.516 212.922C322.557 211.672 323.521 210.474 324.406 209.328C325.292 208.182 326.073 207.167 326.75 206.281C327.479 205.396 328 204.745 328.312 204.328C328.729 203.859 329.146 203.599 329.562 203.547C329.979 203.443 330.292 203.547 330.5 203.859C330.708 204.172 330.734 204.641 330.578 205.266C330.474 205.891 330.109 206.62 329.484 207.453ZM306.594 210.891C306.854 209.849 307.167 208.625 307.531 207.219C307.896 205.812 308.208 204.458 308.469 203.156C308.729 201.854 308.911 200.786 309.016 199.953C309.172 199.068 309.146 198.651 308.938 198.703C308.677 198.755 308.391 198.833 308.078 198.938C307.818 199.042 307.479 199.12 307.062 199.172C306.646 199.224 306.229 199.302 305.812 199.406C306.229 198.573 306.464 197.896 306.516 197.375C306.62 196.802 306.646 196.359 306.594 196.047C306.542 195.682 306.438 195.396 306.281 195.188C305.708 194.719 304.693 195.109 303.234 196.359C301.828 197.557 300.188 199.797 298.312 203.078C297.531 204.432 296.906 205.891 296.438 207.453C295.969 208.964 295.63 210.396 295.422 211.75C295.266 213.104 295.24 214.302 295.344 215.344C295.448 216.333 295.656 216.984 295.969 217.297C296.542 217.87 297.193 218.156 297.922 218.156C298.651 218.104 299.38 217.896 300.109 217.531C300.891 217.115 301.646 216.594 302.375 215.969C303.156 215.344 303.833 214.693 304.406 214.016C305.031 213.339 305.526 212.714 305.891 212.141C306.307 211.568 306.542 211.151 306.594 210.891ZM318.703 178.078C319.589 178.599 320.031 179.458 320.031 180.656C320.031 181.281 319.823 181.906 319.406 182.531C319.042 183.156 318.495 183.703 317.766 184.172C317.089 184.589 316.255 184.901 315.266 185.109C314.328 185.318 313.286 185.344 312.141 185.188C310.943 185.031 309.875 184.797 308.938 184.484C308 184.172 307.141 183.911 306.359 183.703C305.578 183.443 304.823 183.286 304.094 183.234C303.365 183.13 302.583 183.234 301.75 183.547C301.281 183.755 300.812 183.964 300.344 184.172C299.927 184.38 299.484 184.615 299.016 184.875C298.599 185.083 298.208 185.318 297.844 185.578C297.531 185.526 297.271 185.422 297.062 185.266C296.854 185.109 296.672 184.979 296.516 184.875C296.307 184.719 296.177 184.562 296.125 184.406C295.917 184.094 295.76 183.781 295.656 183.469C295.552 183.208 295.474 182.922 295.422 182.609C295.422 182.297 295.5 182.01 295.656 181.75C296.281 180.917 297.036 180.292 297.922 179.875C298.859 179.458 299.771 179.172 300.656 179.016C301.646 178.807 302.688 178.729 303.781 178.781C305.188 178.833 306.307 178.99 307.141 179.25C308.026 179.51 308.833 179.797 309.562 180.109C310.292 180.37 311.021 180.578 311.75 180.734C312.479 180.891 313.443 180.891 314.641 180.734C315.005 180.682 315.422 180.552 315.891 180.344C316.307 180.135 316.75 179.875 317.219 179.562C317.688 179.198 318.182 178.703 318.703 178.078Z" fill="white"/>
<path d="M347.375 210.578C346.854 212.557 346.151 214.406 345.266 216.125C344.38 217.844 343.312 219.328 342.062 220.578C340.865 221.828 339.484 222.792 337.922 223.469C336.411 224.198 334.745 224.562 332.922 224.562C330.786 224.562 329.094 224.094 327.844 223.156C326.646 222.271 325.734 221.151 325.109 219.797C324.536 218.443 324.198 216.958 324.094 215.344C323.938 213.729 323.859 212.219 323.859 210.812C323.859 209.823 323.99 208.729 324.25 207.531C324.458 206.333 324.771 205.109 325.188 203.859C325.604 202.609 326.125 201.359 326.75 200.109C327.427 198.859 328.208 197.714 329.094 196.672C329.406 195.786 329.875 195.005 330.5 194.328C331.177 193.651 331.932 193.104 332.766 192.688C333.651 192.219 334.589 191.88 335.578 191.672C336.568 191.411 337.531 191.281 338.469 191.281C338.625 191.281 338.755 191.307 338.859 191.359C339.016 191.411 339.172 191.464 339.328 191.516C340.005 191.568 340.839 191.828 341.828 192.297C342.87 192.766 343.859 193.469 344.797 194.406C345.786 195.344 346.62 196.542 347.297 198C347.974 199.406 348.312 201.125 348.312 203.156C348.312 203.573 348.286 204.094 348.234 204.719C348.182 205.292 348.13 205.786 348.078 206.203C349.276 205.734 350.526 205.161 351.828 204.484C353.13 203.807 354.38 203.104 355.578 202.375C356.828 201.594 357.974 200.812 359.016 200.031C360.057 199.25 360.891 198.547 361.516 197.922C362.036 197.453 362.479 197.193 362.844 197.141C363.208 197.089 363.469 197.193 363.625 197.453C363.781 197.714 363.807 198.078 363.703 198.547C363.599 199.016 363.312 199.536 362.844 200.109C362.583 200.422 361.906 201.047 360.812 201.984C359.771 202.922 358.521 203.938 357.062 205.031C355.604 206.125 354.016 207.193 352.297 208.234C350.578 209.276 348.938 210.057 347.375 210.578ZM334.172 198.703C334.016 199.172 333.938 199.667 333.938 200.188C333.938 201.021 333.99 201.906 334.094 202.844C334.198 203.729 334.458 204.536 334.875 205.266C335.292 205.995 335.943 206.62 336.828 207.141C337.766 207.609 339.042 207.844 340.656 207.844C340.917 207.844 341.177 207.844 341.438 207.844C341.698 207.792 341.958 207.74 342.219 207.688C342.375 207.01 342.505 206.411 342.609 205.891C342.766 205.318 342.844 204.823 342.844 204.406C342.948 203.417 342.948 202.401 342.844 201.359C342.74 200.318 342.531 199.38 342.219 198.547C341.958 197.661 341.594 196.958 341.125 196.438C340.708 195.865 340.188 195.578 339.562 195.578C338.573 195.578 337.609 195.865 336.672 196.438C335.786 196.958 334.953 197.714 334.172 198.703ZM329.172 212.453C329.172 213.391 329.224 214.328 329.328 215.266C329.432 216.151 329.641 216.958 329.953 217.688C330.266 218.365 330.682 218.938 331.203 219.406C331.724 219.823 332.401 220.031 333.234 220.031C334.172 220.031 335.031 219.823 335.812 219.406C336.594 218.938 337.297 218.365 337.922 217.688C338.547 216.958 339.094 216.151 339.562 215.266C340.083 214.328 340.526 213.365 340.891 212.375C340.526 212.427 340.161 212.479 339.797 212.531C339.484 212.531 339.12 212.531 338.703 212.531C336.724 212.531 335.005 211.958 333.547 210.812C332.141 209.615 331.047 208.104 330.266 206.281C329.953 207.375 329.693 208.443 329.484 209.484C329.276 210.526 329.172 211.516 329.172 212.453Z" fill="white"/>
</svg>
