<svg width="321" height="183" viewBox="0 0 321 183" fill="none" xmlns="http://www.w3.org/2000/svg">
<path fill-rule="evenodd" clip-rule="evenodd" d="M251.786 21.9124C244.706 16.3142 234.614 13.3093 221.122 15.7803C217.357 10.5932 211.254 4.95249 203.059 2.0151C193.468 -1.42256 181.656 -0.923474 168.487 7.14465C160.888 3.56976 150.091 0.0586489 139.552 0.0219157C133.583 0.00111182 127.426 1.09494 121.97 4.19021C117.715 6.60463 114.081 10.1287 111.359 14.902C105.791 12.9694 98.6576 11.9784 91.6086 14.0958C82.5728 16.81 74.8676 24.2493 70.8398 38.2425C65.0489 39.0547 57.8896 41.2417 51.8947 45.7143C44.9768 50.8755 39.8487 58.9442 40.0649 70.4658C35.4534 72.4825 30.3223 76.0351 26.894 81.5227C22.5507 88.4751 21.4485 97.7066 26.1501 108.986C23.5751 113.283 20.7174 119.184 19.1658 125.244C17.38 132.219 16.8828 141.321 23.3572 147.501C24.2873 148.389 25.5237 148.884 26.8095 148.884H302.31C303.605 148.884 304.85 148.381 305.783 147.481C308.971 144.403 312.356 138.869 312.667 131.856C312.948 125.515 310.695 118.549 304.577 111.665C307.088 106.865 309.059 100.399 308.318 93.5239C307.408 85.0761 302.504 76.8995 291.635 70.9607C291.898 65.4595 290.923 58.5413 287.224 52.3652C282.851 45.0642 275.056 39.4469 262.802 38.1458C261.145 32.8021 257.713 26.5995 251.786 21.9124ZM171.612 17.0249C183.446 9.01465 192.832 8.97244 199.685 11.4287C206.846 13.9954 212.006 19.5742 214.473 23.8727C215.58 25.802 217.828 26.7681 219.99 26.2432C232.731 23.1487 240.678 25.8775 245.583 29.7564C250.713 33.8124 253.205 39.6719 253.878 43.7064C254.27 46.0601 256.271 47.8086 258.656 47.882C270.168 48.2363 275.792 52.7398 278.645 57.5036C281.709 62.619 282.074 68.8856 281.378 73.0624C281.006 75.2905 282.175 77.491 284.229 78.4309C294.679 83.2129 297.814 89.3748 298.376 94.5949C298.988 100.278 296.667 106.012 294.213 109.517C292.792 111.548 293.073 114.313 294.874 116.017C301.412 122.202 302.848 127.567 302.677 131.413C302.539 134.513 301.338 137.117 300.046 138.884H283.539C283.225 120.728 277.47 95.3101 261.424 73.489C243.722 49.4167 213.774 30.1212 166.061 29.5015C136.371 29.1159 113.955 35.8377 97.0684 46.4559C80.1975 57.0642 69.1713 71.3561 61.9149 85.6074C54.6734 99.8294 51.1516 114.074 49.2741 124.761C48.3339 130.113 47.8008 134.608 47.4306 137.738C47.3817 138.151 47.3365 138.533 47.2944 138.884H29.1731C27.7702 136.492 27.5563 132.79 28.8533 127.724C30.3579 121.848 33.5147 115.841 35.9698 112.158C36.9508 110.686 37.0815 108.806 36.3134 107.213C31.5176 97.2661 32.8438 90.8728 35.3751 86.8211C38.1304 82.4105 42.9737 79.7225 46.6478 78.702C49.0252 78.0416 50.5654 75.7456 50.2747 73.2953C49.0981 63.3781 52.8682 57.4644 57.8744 53.7294C63.2026 49.7543 70.2202 48.0982 75.0366 47.8792C77.2852 47.777 79.1883 46.1849 79.6858 43.9897C82.7931 30.2811 88.9961 25.3219 94.4855 23.673C100.458 21.8789 107.126 23.5243 111.487 25.8121C112.749 26.4741 114.233 26.5662 115.567 26.0653C116.901 25.5645 117.958 24.5182 118.472 23.1894C120.478 18.0071 123.475 14.834 126.905 12.8879C130.422 10.8926 134.727 10.0052 139.517 10.0219C149.205 10.0556 159.75 13.7872 166.491 17.3145C168.122 18.1676 170.089 18.0563 171.612 17.0249ZM273.53 138.501H57.4101C57.774 135.43 58.2739 131.326 59.1233 126.491C60.902 116.366 64.1927 103.173 70.8262 90.1448C77.4449 77.1461 87.3561 64.3755 102.391 54.9214C117.411 45.4771 137.87 39.1363 165.931 39.5007C210.617 40.081 237.586 57.9522 253.367 79.4132C267.847 99.1032 273.141 122.149 273.53 138.501ZM243.654 90.3002C245.422 88.1788 248.575 87.8922 250.697 89.66C252.968 91.5526 254.998 94.5303 256.456 97.8825C257.947 101.312 258.996 105.488 258.996 110.001C258.996 112.763 256.757 115.001 253.996 115.001C251.234 115.001 248.996 112.763 248.996 110.001C248.996 107.014 248.294 104.191 247.285 101.87C246.243 99.4719 245.023 97.9495 244.295 97.3422C242.173 95.5744 241.887 92.4216 243.654 90.3002ZM178.496 47.0011C175.734 47.0011 173.496 49.2397 173.496 52.0011C173.496 54.7625 175.734 57.0011 178.496 57.0011C194.248 57.0011 217.71 63.5085 235.607 85.6447C237.344 87.7921 240.492 88.1254 242.639 86.3892C244.787 84.6531 245.12 81.5048 243.384 79.3575C223.281 54.4937 196.743 47.0011 178.496 47.0011Z" fill="#A80000"/>
<path d="M40.9375 140.75C40.6771 144.031 40.1562 147.339 39.375 150.672C38.5938 153.953 37.6042 157.13 36.4062 160.203C35.2604 163.276 33.9062 166.141 32.3438 168.797C30.7812 171.505 29.0365 173.849 27.1094 175.828C25.2344 177.807 23.2031 179.37 21.0156 180.516C18.8802 181.661 16.6406 182.234 14.2969 182.234C13.8281 182.234 13.099 182.13 12.1094 181.922C11.1719 181.766 10.1562 181.349 9.0625 180.672C7.96875 180.047 6.84896 179.109 5.70312 177.859C4.60938 176.609 3.64583 174.917 2.8125 172.781C1.97917 170.698 1.38021 168.094 1.01562 164.969C0.651042 161.844 0.651042 158.068 1.01562 153.641C1.64062 146.661 2.91667 140.333 4.84375 134.656C6.82292 128.927 9.0625 124.031 11.5625 119.969C14.1146 115.906 16.7448 112.781 19.4531 110.594C22.1615 108.354 24.5573 107.234 26.6406 107.234C27.474 107.234 28.151 107.417 28.6719 107.781C29.2448 108.094 29.6875 108.51 30 109.031C30.3646 108.927 30.7812 108.849 31.25 108.797C31.7188 108.745 32.2396 108.719 32.8125 108.719C34.3229 108.719 35.651 109.5 36.7969 111.062C37.9948 112.625 38.9583 114.812 39.6875 117.625C40.4688 120.438 40.9635 123.823 41.1719 127.781C41.4323 131.688 41.3542 136.01 40.9375 140.75ZM14.5312 177.703C16.5625 177.703 18.6458 176.661 20.7812 174.578C22.9167 172.495 24.8958 169.682 26.7188 166.141C28.5417 162.547 30.1042 158.38 31.4062 153.641C32.7083 148.901 33.5938 143.875 34.0625 138.562C34.1667 137.156 34.2448 135.542 34.2969 133.719C34.349 131.896 34.349 130.047 34.2969 128.172C34.2448 126.297 34.1146 124.448 33.9062 122.625C33.75 120.75 33.5156 119.109 33.2031 117.703C32.8906 116.297 32.5 115.151 32.0312 114.266C31.5625 113.38 31.0156 112.938 30.3906 112.938C29.7135 112.99 29.0365 113.198 28.3594 113.562C27.7865 113.875 27.1094 114.396 26.3281 115.125C25.599 115.802 24.8698 116.766 24.1406 118.016C23.9844 117.911 23.8542 117.755 23.75 117.547C23.6979 117.339 23.6198 117.13 23.5156 116.922C23.4115 116.714 23.3333 116.479 23.2812 116.219C23.1771 116.062 23.125 115.88 23.125 115.672C23.125 115.411 23.099 115.125 23.0469 114.812C22.0052 115.958 20.7552 117.599 19.2969 119.734C17.8906 121.818 16.4583 124.422 15 127.547C13.5938 130.672 12.2917 134.37 11.0938 138.641C9.94792 142.859 9.14062 147.677 8.67188 153.094C8.25521 157.885 8.15104 161.87 8.35938 165.047C8.56771 168.224 8.95833 170.75 9.53125 172.625C10.1562 174.5 10.9115 175.802 11.7969 176.531C12.6823 177.312 13.5938 177.703 14.5312 177.703ZM63.8281 178.172C64.0365 178.016 64.375 177.755 64.8438 177.391C65.2604 177.026 65.7812 176.349 66.4062 175.359C66.9792 174.37 67.6302 172.938 68.3594 171.062C69.0885 169.188 69.8438 166.635 70.625 163.406C71.0417 161.688 71.5885 159.5 72.2656 156.844C72.9427 154.188 73.6719 151.349 74.4531 148.328C75.2865 145.307 76.1198 142.208 76.9531 139.031C77.7865 135.802 78.5938 132.755 79.375 129.891C80.1562 126.974 80.8594 124.344 81.4844 122C82.1094 119.656 82.6042 117.833 82.9688 116.531C81.9792 117.156 81.0156 117.859 80.0781 118.641C79.2448 119.318 78.3594 120.099 77.4219 120.984C76.4844 121.818 75.5729 122.703 74.6875 123.641C74.0104 123.068 73.4896 122.443 73.125 121.766C72.9167 121.453 72.7344 121.115 72.5781 120.75C72.2656 119.969 72.1094 119.161 72.1094 118.328C72.1094 117.495 72.7604 116.635 74.0625 115.75C74.7396 115.281 75.7552 114.604 77.1094 113.719C78.5156 112.833 80.2344 111.974 82.2656 111.141C84.2969 110.255 86.6667 109.5 89.375 108.875C92.0833 108.25 95.0781 107.938 98.3594 107.938C101.641 107.938 104.271 108.589 106.25 109.891C108.281 111.193 109.818 112.781 110.859 114.656C111.953 116.531 112.656 118.51 112.969 120.594C113.281 122.677 113.359 124.5 113.203 126.062C112.891 128.979 111.953 132.026 110.391 135.203C108.828 138.38 106.667 141.323 103.906 144.031C101.146 146.688 97.7865 148.953 93.8281 150.828C89.8698 152.703 85.3385 153.771 80.2344 154.031C79.8177 156.01 79.401 158.042 78.9844 160.125C78.5677 162.208 78.125 164.266 77.6562 166.297C77.1875 168.276 76.6927 170.125 76.1719 171.844C75.7031 173.615 75.2083 175.125 74.6875 176.375C74.1667 177.729 73.4896 178.797 72.6562 179.578C71.8229 180.411 70.4948 180.828 68.6719 180.828C67.7344 180.828 66.875 180.594 66.0938 180.125C65.2604 179.656 64.5052 179.005 63.8281 178.172ZM82.3438 142.547C82.1875 143.38 81.9792 144.474 81.7188 145.828C81.5104 147.13 81.25 148.615 80.9375 150.281C82.3438 150.073 83.9062 149.708 85.625 149.188C87.3438 148.615 89.0625 147.859 90.7812 146.922C92.5 145.984 94.1667 144.865 95.7812 143.562C97.4479 142.208 98.9583 140.672 100.312 138.953C101.667 137.182 102.786 135.203 103.672 133.016C104.609 130.776 105.208 128.302 105.469 125.594C105.729 122.99 105.573 120.828 105 119.109C104.479 117.339 103.698 115.932 102.656 114.891C101.615 113.797 100.417 113.042 99.0625 112.625C97.7083 112.156 96.3542 111.922 95 111.922C93.6979 111.922 92.4219 112.104 91.1719 112.469C89.9219 112.833 88.6719 113.302 87.4219 113.875C87.5781 113.927 87.7604 114.057 87.9688 114.266C88.2812 114.578 88.5156 115.021 88.6719 115.594C87.4219 120.646 86.3802 124.865 85.5469 128.25C84.7656 131.635 84.1406 134.396 83.6719 136.531C83.099 139.031 82.6562 141.036 82.3438 142.547ZM152.109 151.453C151.38 152.495 150.443 153.797 149.297 155.359C148.151 156.87 146.953 158.406 145.703 159.969C144.505 161.479 143.307 162.885 142.109 164.188C140.964 165.438 140 166.323 139.219 166.844C138.698 167.156 138.099 167.417 137.422 167.625C136.745 167.833 136.042 167.964 135.312 168.016C134.635 168.068 133.984 168.016 133.359 167.859C132.734 167.755 132.188 167.547 131.719 167.234C131.25 166.87 130.859 166.349 130.547 165.672C130.286 165.099 130.026 164.344 129.766 163.406C129.557 162.469 129.479 161.297 129.531 159.891C128.281 161.974 126.901 163.589 125.391 164.734C123.88 165.828 122.448 166.635 121.094 167.156C119.531 167.729 117.969 168.068 116.406 168.172C115.677 168.172 114.896 167.911 114.062 167.391C113.229 166.922 112.526 166.167 111.953 165.125C111.38 164.031 111.016 162.651 110.859 160.984C110.703 159.266 110.911 157.234 111.484 154.891C112.214 151.714 113.359 148.823 114.922 146.219C116.536 143.615 118.281 141.401 120.156 139.578C122.031 137.703 123.88 136.297 125.703 135.359C127.526 134.422 129.036 134.005 130.234 134.109C131.641 134.37 132.786 134.786 133.672 135.359C134.401 135.88 134.87 136.661 135.078 137.703C135.339 138.693 134.922 140.021 133.828 141.688C134.557 141.531 135.156 141.427 135.625 141.375C136.146 141.323 136.536 141.297 136.797 141.297C137.109 141.297 137.318 141.323 137.422 141.375C137.474 141.479 137.5 141.714 137.5 142.078C137.5 142.391 137.422 142.99 137.266 143.875C137.109 144.76 136.875 145.958 136.562 147.469C136.25 148.979 135.833 150.932 135.312 153.328C135.208 153.797 135.104 154.24 135 154.656C134.948 155.021 134.87 155.411 134.766 155.828C134.714 156.193 134.635 156.635 134.531 157.156C134.427 157.677 134.297 158.328 134.141 159.109C134.089 159.578 134.062 160.099 134.062 160.672C134.115 161.193 134.219 161.688 134.375 162.156C134.531 162.625 134.766 163.016 135.078 163.328C135.443 163.589 135.938 163.719 136.562 163.719C137.083 163.719 137.76 163.406 138.594 162.781C139.427 162.104 140.312 161.271 141.25 160.281C142.188 159.24 143.151 158.12 144.141 156.922C145.182 155.672 146.146 154.474 147.031 153.328C147.917 152.182 148.698 151.167 149.375 150.281C150.104 149.396 150.625 148.745 150.938 148.328C151.354 147.859 151.771 147.599 152.188 147.547C152.604 147.443 152.917 147.547 153.125 147.859C153.333 148.172 153.359 148.641 153.203 149.266C153.099 149.891 152.734 150.62 152.109 151.453ZM129.219 154.891C129.479 153.849 129.792 152.625 130.156 151.219C130.521 149.812 130.833 148.458 131.094 147.156C131.354 145.854 131.536 144.786 131.641 143.953C131.797 143.068 131.771 142.651 131.562 142.703C131.302 142.755 131.016 142.833 130.703 142.938C130.443 143.042 130.104 143.12 129.688 143.172C129.271 143.224 128.854 143.302 128.438 143.406C128.854 142.573 129.089 141.896 129.141 141.375C129.245 140.802 129.271 140.359 129.219 140.047C129.167 139.682 129.062 139.396 128.906 139.188C128.333 138.719 127.318 139.109 125.859 140.359C124.453 141.557 122.812 143.797 120.938 147.078C120.156 148.432 119.531 149.891 119.062 151.453C118.594 152.964 118.255 154.396 118.047 155.75C117.891 157.104 117.865 158.302 117.969 159.344C118.073 160.333 118.281 160.984 118.594 161.297C119.167 161.87 119.818 162.156 120.547 162.156C121.276 162.104 122.005 161.896 122.734 161.531C123.516 161.115 124.271 160.594 125 159.969C125.781 159.344 126.458 158.693 127.031 158.016C127.656 157.339 128.151 156.714 128.516 156.141C128.932 155.568 129.167 155.151 129.219 154.891ZM157.891 164.344C158.203 164.552 158.594 164.656 159.062 164.656C159.583 164.656 160.078 164.552 160.547 164.344C161.068 164.135 161.536 163.849 161.953 163.484C162.422 163.12 162.76 162.651 162.969 162.078C163.177 161.505 163.177 160.698 162.969 159.656C162.76 158.562 162.422 157.417 161.953 156.219C161.536 154.969 161.068 153.719 160.547 152.469C160.026 151.219 159.583 150.073 159.219 149.031C158.906 148.25 158.646 147.521 158.438 146.844C158.229 146.271 158.021 145.724 157.812 145.203C157.656 144.63 157.526 144.24 157.422 144.031C157.161 144.448 156.693 145.125 156.016 146.062C155.391 147 154.688 147.99 153.906 149.031C153.177 150.021 152.474 150.958 151.797 151.844C151.12 152.677 150.651 153.25 150.391 153.562C149.974 154.031 149.557 154.318 149.141 154.422C148.776 154.474 148.464 154.396 148.203 154.188C147.943 153.927 147.786 153.589 147.734 153.172C147.734 152.703 147.943 152.156 148.359 151.531C148.672 151.115 149.141 150.464 149.766 149.578C150.391 148.641 151.016 147.703 151.641 146.766C152.266 145.776 152.839 144.917 153.359 144.188C153.88 143.406 154.167 142.938 154.219 142.781C154.323 142.365 154.167 141.818 153.75 141.141C153.385 140.464 153.333 139.682 153.594 138.797C153.802 138.068 154.271 137.234 155 136.297C155.729 135.307 156.589 134.422 157.578 133.641C158.568 132.859 159.583 132.286 160.625 131.922C161.667 131.505 162.604 131.505 163.438 131.922C164.115 132.339 164.661 132.807 165.078 133.328C165.495 133.797 165.651 134.292 165.547 134.812C165.443 135.073 165.286 135.411 165.078 135.828C164.87 136.245 164.557 136.766 164.141 137.391C163.724 137.964 163.125 138.719 162.344 139.656C162.5 140.854 162.708 141.948 162.969 142.938C163.281 143.927 163.568 144.786 163.828 145.516C164.141 146.401 164.479 147.208 164.844 147.938C165.312 148.875 165.807 149.839 166.328 150.828C166.849 151.818 167.318 152.807 167.734 153.797C168.151 154.734 168.49 155.62 168.75 156.453C169.01 157.286 169.089 157.99 168.984 158.562C168.828 159.448 168.359 160.516 167.578 161.766C166.849 163.016 165.911 164.24 164.766 165.438C163.672 166.583 162.396 167.573 160.938 168.406C159.531 169.24 158.047 169.656 156.484 169.656C155.391 169.656 154.323 169.318 153.281 168.641C152.292 167.964 151.432 167.182 150.703 166.297C150.026 165.359 149.505 164.448 149.141 163.562C148.828 162.677 148.802 162 149.062 161.531C149.375 160.906 149.661 160.411 149.922 160.047C150.182 159.682 150.573 159.266 151.094 158.797C151.302 158.641 151.562 158.458 151.875 158.25C152.135 158.094 152.5 157.938 152.969 157.781C153.438 157.625 153.984 157.443 154.609 157.234C155.13 158.849 155.599 160.125 156.016 161.062C156.432 161.948 156.771 162.651 157.031 163.172C157.344 163.745 157.63 164.135 157.891 164.344ZM203.828 147.234C204.036 146.922 204.297 146.74 204.609 146.688C204.974 146.583 205.26 146.609 205.469 146.766C205.677 146.922 205.781 147.182 205.781 147.547C205.833 147.911 205.703 148.406 205.391 149.031C204.349 151.01 202.969 153.146 201.25 155.438C199.583 157.729 197.812 159.891 195.938 161.922C194.062 163.901 192.24 165.542 190.469 166.844C188.698 168.146 187.214 168.797 186.016 168.797C184.297 168.797 182.865 168.458 181.719 167.781C180.573 167.104 179.661 166.271 178.984 165.281C178.359 164.292 177.917 163.224 177.656 162.078C177.396 160.88 177.318 159.786 177.422 158.797C177.474 157.964 177.656 156.479 177.969 154.344C178.281 152.156 178.698 149.656 179.219 146.844C179.74 143.979 180.312 140.932 180.938 137.703C181.615 134.422 182.318 131.271 183.047 128.25C182.161 128.354 181.276 128.458 180.391 128.562C179.505 128.667 178.698 128.719 177.969 128.719C176.302 128.719 174.74 128.536 173.281 128.172C171.771 127.755 170.651 127.365 169.922 127C169.505 126.792 169.323 126.505 169.375 126.141C169.427 125.724 169.583 125.333 169.844 124.969C170.104 124.552 170.443 124.214 170.859 123.953C171.224 123.641 171.562 123.484 171.875 123.484C172.865 123.589 173.932 123.693 175.078 123.797C176.224 123.849 177.474 123.849 178.828 123.797C179.818 123.745 180.755 123.667 181.641 123.562C182.578 123.458 183.49 123.328 184.375 123.172C185.052 120.672 185.703 118.51 186.328 116.688C187.005 114.812 187.604 113.51 188.125 112.781C188.281 112.521 188.62 112.312 189.141 112.156C189.714 111.948 190.312 111.818 190.938 111.766C191.562 111.661 192.161 111.661 192.734 111.766C193.307 111.818 193.724 112 193.984 112.312C194.245 112.729 194.349 113.797 194.297 115.516C194.245 117.234 193.958 119.422 193.438 122.078C195.625 122.078 197.552 122.208 199.219 122.469C200.938 122.677 202.396 122.938 203.594 123.25C204.792 123.51 205.755 123.797 206.484 124.109C207.214 124.37 207.76 124.552 208.125 124.656C208.49 124.76 208.672 125.021 208.672 125.438C208.724 125.854 208.646 126.297 208.438 126.766C208.281 127.182 207.995 127.547 207.578 127.859C207.161 128.172 206.693 128.276 206.172 128.172C205.651 128.12 205.052 128.016 204.375 127.859C203.75 127.703 202.969 127.573 202.031 127.469C201.146 127.365 200.078 127.26 198.828 127.156C197.578 127.052 196.12 127 194.453 127C194.141 127 193.776 127.026 193.359 127.078C192.995 127.078 192.604 127.078 192.188 127.078C191.979 127.911 191.771 128.745 191.562 129.578C191.406 130.359 191.172 131.193 190.859 132.078C190.182 134.161 189.401 136.427 188.516 138.875C187.734 141.01 186.797 143.458 185.703 146.219C184.609 148.979 183.385 151.922 182.031 155.047C181.719 157.286 181.745 159.005 182.109 160.203C182.526 161.349 183.021 162.182 183.594 162.703C184.271 163.276 185.104 163.589 186.094 163.641C186.875 163.745 187.812 163.484 188.906 162.859C190.052 162.182 191.224 161.297 192.422 160.203C193.62 159.109 194.818 157.911 196.016 156.609C197.266 155.307 198.411 154.031 199.453 152.781C200.495 151.531 201.406 150.411 202.188 149.422C202.969 148.38 203.516 147.651 203.828 147.234ZM234.531 150.75C232.969 153.042 231.198 155.281 229.219 157.469C227.24 159.604 225.13 161.531 222.891 163.25C220.703 164.917 218.438 166.271 216.094 167.312C213.802 168.354 211.562 168.875 209.375 168.875C208.229 168.875 206.979 168.589 205.625 168.016C204.323 167.495 203.125 166.661 202.031 165.516C200.938 164.37 200.052 162.885 199.375 161.062C198.75 159.24 198.568 157.026 198.828 154.422C199.036 152.286 199.688 150.047 200.781 147.703C201.927 145.307 203.307 143.12 204.922 141.141C206.589 139.161 208.438 137.521 210.469 136.219C212.552 134.917 214.635 134.266 216.719 134.266C218.698 134.266 220.13 134.76 221.016 135.75C221.901 136.74 222.292 137.964 222.188 139.422C222.031 141.036 221.562 142.521 220.781 143.875C220.052 145.229 219.167 146.453 218.125 147.547C217.083 148.641 215.964 149.63 214.766 150.516C213.62 151.401 212.526 152.208 211.484 152.938C210.339 153.719 209.245 154.474 208.203 155.203C207.161 155.88 206.25 156.505 205.469 157.078C205.521 158.38 205.755 159.474 206.172 160.359C206.589 161.245 207.109 161.974 207.734 162.547C208.359 163.068 209.062 163.458 209.844 163.719C210.677 163.927 211.51 164.031 212.344 164.031C214.115 164.031 215.964 163.484 217.891 162.391C219.818 161.245 221.693 159.891 223.516 158.328C225.391 156.714 227.109 155.047 228.672 153.328C230.286 151.609 231.615 150.125 232.656 148.875C233.021 148.458 233.385 148.224 233.75 148.172C234.167 148.068 234.479 148.12 234.688 148.328C234.948 148.484 235.078 148.797 235.078 149.266C235.078 149.682 234.896 150.177 234.531 150.75ZM214.531 138.719C213.906 138.719 213.151 139.031 212.266 139.656C211.432 140.281 210.599 141.193 209.766 142.391C208.932 143.536 208.151 144.969 207.422 146.688C206.693 148.354 206.146 150.281 205.781 152.469C206.406 152 207.083 151.531 207.812 151.062C208.542 150.542 209.271 149.995 210 149.422C212.24 147.703 213.802 146.193 214.688 144.891C215.573 143.589 216.068 142.469 216.172 141.531C216.276 140.542 216.172 139.839 215.859 139.422C215.547 138.953 215.104 138.719 214.531 138.719ZM227.734 165.75C230.026 156.115 231.849 148.38 233.203 142.547C234.609 136.714 235.677 132.26 236.406 129.188C237.24 125.542 237.812 123.016 238.125 121.609C238.281 120.62 238.411 119.656 238.516 118.719C238.62 117.885 238.672 117.026 238.672 116.141C238.672 115.255 238.594 114.448 238.438 113.719C238.854 113.458 239.297 113.25 239.766 113.094C240.286 112.938 240.781 112.807 241.25 112.703C241.823 112.547 242.396 112.417 242.969 112.312C243.542 112.208 244.062 112.156 244.531 112.156C244.948 112.156 245.339 112.208 245.703 112.312C246.068 112.365 246.302 112.521 246.406 112.781C246.719 113.042 246.849 113.562 246.797 114.344C246.797 115.125 246.745 115.932 246.641 116.766C246.432 117.755 246.198 118.823 245.938 119.969C245.312 122.208 244.453 125.438 243.359 129.656C242.422 133.25 241.146 138.146 239.531 144.344C237.969 150.542 235.99 158.354 233.594 167.781C233.333 168.042 233.021 168.224 232.656 168.328C232.292 168.432 231.953 168.484 231.641 168.484C231.276 168.484 230.885 168.458 230.469 168.406C230.104 168.302 229.74 168.146 229.375 167.938C229.062 167.729 228.75 167.443 228.438 167.078C228.125 166.766 227.891 166.323 227.734 165.75ZM286.484 151.453C285.755 152.495 284.818 153.797 283.672 155.359C282.526 156.87 281.328 158.406 280.078 159.969C278.88 161.479 277.682 162.885 276.484 164.188C275.339 165.438 274.375 166.323 273.594 166.844C273.073 167.156 272.474 167.417 271.797 167.625C271.12 167.833 270.417 167.964 269.688 168.016C269.01 168.068 268.359 168.016 267.734 167.859C267.109 167.755 266.562 167.547 266.094 167.234C265.625 166.87 265.234 166.349 264.922 165.672C264.661 165.099 264.401 164.344 264.141 163.406C263.932 162.469 263.854 161.297 263.906 159.891C262.656 161.974 261.276 163.589 259.766 164.734C258.255 165.828 256.823 166.635 255.469 167.156C253.906 167.729 252.344 168.068 250.781 168.172C250.052 168.172 249.271 167.911 248.438 167.391C247.604 166.922 246.901 166.167 246.328 165.125C245.755 164.031 245.391 162.651 245.234 160.984C245.078 159.266 245.286 157.234 245.859 154.891C246.589 151.714 247.734 148.823 249.297 146.219C250.911 143.615 252.656 141.401 254.531 139.578C256.406 137.703 258.255 136.297 260.078 135.359C261.901 134.422 263.411 134.005 264.609 134.109C266.016 134.37 267.161 134.786 268.047 135.359C268.776 135.88 269.245 136.661 269.453 137.703C269.714 138.693 269.297 140.021 268.203 141.688C268.932 141.531 269.531 141.427 270 141.375C270.521 141.323 270.911 141.297 271.172 141.297C271.484 141.297 271.693 141.323 271.797 141.375C271.849 141.479 271.875 141.714 271.875 142.078C271.875 142.391 271.797 142.99 271.641 143.875C271.484 144.76 271.25 145.958 270.938 147.469C270.625 148.979 270.208 150.932 269.688 153.328C269.583 153.797 269.479 154.24 269.375 154.656C269.323 155.021 269.245 155.411 269.141 155.828C269.089 156.193 269.01 156.635 268.906 157.156C268.802 157.677 268.672 158.328 268.516 159.109C268.464 159.578 268.438 160.099 268.438 160.672C268.49 161.193 268.594 161.688 268.75 162.156C268.906 162.625 269.141 163.016 269.453 163.328C269.818 163.589 270.312 163.719 270.938 163.719C271.458 163.719 272.135 163.406 272.969 162.781C273.802 162.104 274.688 161.271 275.625 160.281C276.562 159.24 277.526 158.12 278.516 156.922C279.557 155.672 280.521 154.474 281.406 153.328C282.292 152.182 283.073 151.167 283.75 150.281C284.479 149.396 285 148.745 285.312 148.328C285.729 147.859 286.146 147.599 286.562 147.547C286.979 147.443 287.292 147.547 287.5 147.859C287.708 148.172 287.734 148.641 287.578 149.266C287.474 149.891 287.109 150.62 286.484 151.453ZM263.594 154.891C263.854 153.849 264.167 152.625 264.531 151.219C264.896 149.812 265.208 148.458 265.469 147.156C265.729 145.854 265.911 144.786 266.016 143.953C266.172 143.068 266.146 142.651 265.938 142.703C265.677 142.755 265.391 142.833 265.078 142.938C264.818 143.042 264.479 143.12 264.062 143.172C263.646 143.224 263.229 143.302 262.812 143.406C263.229 142.573 263.464 141.896 263.516 141.375C263.62 140.802 263.646 140.359 263.594 140.047C263.542 139.682 263.438 139.396 263.281 139.188C262.708 138.719 261.693 139.109 260.234 140.359C258.828 141.557 257.188 143.797 255.312 147.078C254.531 148.432 253.906 149.891 253.438 151.453C252.969 152.964 252.63 154.396 252.422 155.75C252.266 157.104 252.24 158.302 252.344 159.344C252.448 160.333 252.656 160.984 252.969 161.297C253.542 161.87 254.193 162.156 254.922 162.156C255.651 162.104 256.38 161.896 257.109 161.531C257.891 161.115 258.646 160.594 259.375 159.969C260.156 159.344 260.833 158.693 261.406 158.016C262.031 157.339 262.526 156.714 262.891 156.141C263.307 155.568 263.542 155.151 263.594 154.891ZM275.703 122.078C276.589 122.599 277.031 123.458 277.031 124.656C277.031 125.281 276.823 125.906 276.406 126.531C276.042 127.156 275.495 127.703 274.766 128.172C274.089 128.589 273.255 128.901 272.266 129.109C271.328 129.318 270.286 129.344 269.141 129.188C267.943 129.031 266.875 128.797 265.938 128.484C265 128.172 264.141 127.911 263.359 127.703C262.578 127.443 261.823 127.286 261.094 127.234C260.365 127.13 259.583 127.234 258.75 127.547C258.281 127.755 257.812 127.964 257.344 128.172C256.927 128.38 256.484 128.615 256.016 128.875C255.599 129.083 255.208 129.318 254.844 129.578C254.531 129.526 254.271 129.422 254.062 129.266C253.854 129.109 253.672 128.979 253.516 128.875C253.307 128.719 253.177 128.562 253.125 128.406C252.917 128.094 252.76 127.781 252.656 127.469C252.552 127.208 252.474 126.922 252.422 126.609C252.422 126.297 252.5 126.01 252.656 125.75C253.281 124.917 254.036 124.292 254.922 123.875C255.859 123.458 256.771 123.172 257.656 123.016C258.646 122.807 259.688 122.729 260.781 122.781C262.188 122.833 263.307 122.99 264.141 123.25C265.026 123.51 265.833 123.797 266.562 124.109C267.292 124.37 268.021 124.578 268.75 124.734C269.479 124.891 270.443 124.891 271.641 124.734C272.005 124.682 272.422 124.552 272.891 124.344C273.307 124.135 273.75 123.875 274.219 123.562C274.688 123.198 275.182 122.703 275.703 122.078ZM304.375 154.578C303.854 156.557 303.151 158.406 302.266 160.125C301.38 161.844 300.312 163.328 299.062 164.578C297.865 165.828 296.484 166.792 294.922 167.469C293.411 168.198 291.745 168.562 289.922 168.562C287.786 168.562 286.094 168.094 284.844 167.156C283.646 166.271 282.734 165.151 282.109 163.797C281.536 162.443 281.198 160.958 281.094 159.344C280.938 157.729 280.859 156.219 280.859 154.812C280.859 153.823 280.99 152.729 281.25 151.531C281.458 150.333 281.771 149.109 282.188 147.859C282.604 146.609 283.125 145.359 283.75 144.109C284.427 142.859 285.208 141.714 286.094 140.672C286.406 139.786 286.875 139.005 287.5 138.328C288.177 137.651 288.932 137.104 289.766 136.688C290.651 136.219 291.589 135.88 292.578 135.672C293.568 135.411 294.531 135.281 295.469 135.281C295.625 135.281 295.755 135.307 295.859 135.359C296.016 135.411 296.172 135.464 296.328 135.516C297.005 135.568 297.839 135.828 298.828 136.297C299.87 136.766 300.859 137.469 301.797 138.406C302.786 139.344 303.62 140.542 304.297 142C304.974 143.406 305.312 145.125 305.312 147.156C305.312 147.573 305.286 148.094 305.234 148.719C305.182 149.292 305.13 149.786 305.078 150.203C306.276 149.734 307.526 149.161 308.828 148.484C310.13 147.807 311.38 147.104 312.578 146.375C313.828 145.594 314.974 144.812 316.016 144.031C317.057 143.25 317.891 142.547 318.516 141.922C319.036 141.453 319.479 141.193 319.844 141.141C320.208 141.089 320.469 141.193 320.625 141.453C320.781 141.714 320.807 142.078 320.703 142.547C320.599 143.016 320.312 143.536 319.844 144.109C319.583 144.422 318.906 145.047 317.812 145.984C316.771 146.922 315.521 147.938 314.062 149.031C312.604 150.125 311.016 151.193 309.297 152.234C307.578 153.276 305.938 154.057 304.375 154.578ZM291.172 142.703C291.016 143.172 290.938 143.667 290.938 144.188C290.938 145.021 290.99 145.906 291.094 146.844C291.198 147.729 291.458 148.536 291.875 149.266C292.292 149.995 292.943 150.62 293.828 151.141C294.766 151.609 296.042 151.844 297.656 151.844C297.917 151.844 298.177 151.844 298.438 151.844C298.698 151.792 298.958 151.74 299.219 151.688C299.375 151.01 299.505 150.411 299.609 149.891C299.766 149.318 299.844 148.823 299.844 148.406C299.948 147.417 299.948 146.401 299.844 145.359C299.74 144.318 299.531 143.38 299.219 142.547C298.958 141.661 298.594 140.958 298.125 140.438C297.708 139.865 297.188 139.578 296.562 139.578C295.573 139.578 294.609 139.865 293.672 140.438C292.786 140.958 291.953 141.714 291.172 142.703ZM286.172 156.453C286.172 157.391 286.224 158.328 286.328 159.266C286.432 160.151 286.641 160.958 286.953 161.688C287.266 162.365 287.682 162.938 288.203 163.406C288.724 163.823 289.401 164.031 290.234 164.031C291.172 164.031 292.031 163.823 292.812 163.406C293.594 162.938 294.297 162.365 294.922 161.688C295.547 160.958 296.094 160.151 296.562 159.266C297.083 158.328 297.526 157.365 297.891 156.375C297.526 156.427 297.161 156.479 296.797 156.531C296.484 156.531 296.12 156.531 295.703 156.531C293.724 156.531 292.005 155.958 290.547 154.812C289.141 153.615 288.047 152.104 287.266 150.281C286.953 151.375 286.693 152.443 286.484 153.484C286.276 154.526 286.172 155.516 286.172 156.453Z" fill="white"/>
</svg>
