<?xml version="1.0" encoding="UTF-8"?> <svg xmlns="http://www.w3.org/2000/svg" xmlns:v="https://vecta.io/nano" viewBox="0 0 380.858 380.942"><path d="M37.992 110.9l21.4 21.4 21.4-21.4z" fill="#006986"></path><path d="M168.492 376.7a45.749 45.749 0 0 1-32.55-13.48l-118.2-118.16A46 46 0 0 1 17.7 180l.037-.036 110-110V33.16A28.9 28.9 0 0 1 156.6 4.3h93.64l2-.06h2.82a28.468 28.468 0 0 1 14.46 4 28.866 28.866 0 0 1 7 5.67l89.7 89.7a35.691 35.691 0 0 1 0 50.42l-33.57 33.57v28.7a36.544 36.544 0 0 1-11.79 26.94l-.3.35-1.4 1.5-118.18 118.1a45.73 45.73 0 0 1-32.488 13.5z" fill="#fff"></path><path d="M255.052 8.5a24.1 24.1 0 0 1 12.3 3.36 24.65 24.65 0 0 1 6.05 4.93l89.78 89.77a31.411 31.411 0 0 1 0 44.41l-34.8 34.86v30.43a32.561 32.561 0 0 1-10.59 24l-1.64 1.82-17.27 17.26H37.992l-17.26-17.26a41.779 41.779 0 0 1 0-59.08l111.2-111.25V33.17a24.61 24.61 0 0 1 24.61-24.61h93.77l1.9-.06h2.82m0-8.5h-2.82l-2.15.06h-93.52a33.14 33.14 0 0 0-33.05 33.11v35.06L14.732 176.96a50.259 50.259 0 0 0-.022 71.078L132.892 366.2a50.26 50.26 0 0 0 71.078.022L322.152 248.06l1.58-1.73.15-.17a40.751 40.751 0 0 0 13-29.91v-26.92l32.33-32.33a40 40 0 0 0 0-56.43L279.632 11A33.389 33.389 0 0 0 255.1.06z" fill="#00b8d6"></path><path d="M288.592,130.05h24.6a6.15,6.15,0,0,1,6.15,6.15h0v24.63a6.15,6.15,0,0,1-6.15,6.15h-24.6a6.15,6.15,0,0,1-6.1-6.15V136.2a6.149,6.149,0,0,1,6.15-6.15h0" fill="#004a8f"></path><path d="M285.492 148.5h2.87v12.33h-2.87zm17.37 7.93h-.58a7.148 7.148 0 0 0-.84.08c-1.1.17-1.85.62-1.85 1.5a1.17 1.17 0 0 0 1.148 1.191 1.227 1.227 0 0 0 .182-.011 2 2 0 0 0 1.84-1.17h0v-.1a1.96 1.96 0 0 0 .06-.47zm-1.64-5.1c3.17 0 4.26 1.82 4.26 4v5.5h-2.34l-.3-1a3.712 3.712 0 0 1-2.88 1.18 2.92 2.92 0 0 1-3.161-2.658q-.007-.08-.01-.162c0-2.38 2.3-3.6 6-3.57v-.1c0-.43-.35-1.3-2-1.28a5.89 5.89 0 0 0-2.77.74l-.54-1.8a7.705 7.705 0 0 1 3.79-.87m12.2.26v5.4a1.606 1.606 0 0 1-.1.59 1.87 1.87 0 0 1-1.73 1.18c-1.17 0-1.68-.86-1.68-2.3v-4.88h-2.8v5.4a5.558 5.558 0 0 0 .27 1.85 3.526 3.526 0 0 0 .71 1.25 2.63 2.63 0 0 0 1.08.72 4.137 4.137 0 0 0 1.39.23 3.552 3.552 0 0 0 1.18-.17 3.4 3.4 0 0 0 .88-.39 2.623 2.623 0 0 0 .62-.49 2.924 2.924 0 0 0 .39-.47l.36 1.3h2.28v-9.23zm-22.36-3.08v3.08h-1.3v2.1h1.3v3.74a3.9 3.9 0 0 0 .79 2.74 3.06 3.06 0 0 0 2.25.86 3.478 3.478 0 0 0 1.55-.27v-2.14a1.527 1.527 0 0 1-.58.08c-1 0-1.22-.62-1.22-1.75v-3.26h1.78v-2.1H293.9v-3.08zm21.3 0l-1.74 2.5h2l2.43-2.5z" fill="#fff200"></path><path d="M276.492 204.23a15.35 15.35 0 0 1-15.35 15.35h-18.1a15.349 15.349 0 0 1-15.35-15.35h0V184.5a15.349 15.349 0 0 1 15.35-15.35h18.1a15.35 15.35 0 0 1 15.35 15.35h0zm-16.7-23.4h-15.46a4.16 4.16 0 0 0-4.16 4.16v18.73a4.159 4.159 0 0 0 4.15 4.17h15.47a4.16 4.16 0 0 0 4.16-4.16V185a4.161 4.161 0 0 0-4.15-4.17h-.01m-162.7 26.05a112.008 112.008 0 0 1-25.56.5c-3.74-.33-4.07-3.2-4.07-3.75v-19.06c0-3.42 3-3.44 4.6-3.6 5.84-.54 25 .53 25 .53v-10.67a130.683 130.683 0 0 0-28.2-1.43 15.649 15.649 0 0 0-8.72 3.07A12.631 12.631 0 0 0 56 178.4c-1.12 3.3-1.08 12.67-1.08 13.8v6.54c0 5.72.3 9.65 1.6 12.6 3.28 7.46 10 7.7 12.33 8 7.53 1 28.22-1.25 28.22-1.25zm46.6-37.74v34.58a4.16 4.16 0 0 1-4.15 4.17h-15.27a4.17 4.17 0 0 1-4.17-4.17h0v-34.6H107.6v36.7a13.7 13.7 0 0 0 13.69 13.71h19.87c5.08 0 6.48-1.26 8.52-3.3l3.2-3.2c2.05-2.05 3.3-3.45 3.3-8.53v-35.4zm63.25 15.86v18.72a4.161 4.161 0 0 1-4.15 4.17h-19.6a4.17 4.17 0 0 1-4.17-4.17h0V185a4.17 4.17 0 0 1 4.17-4.17h19.56a4.16 4.16 0 0 1 4.17 4.15v.02m-1.75-15.86h-16.4c-6.06 0-5.05-.25-9.76 3.55v-20.8h-12.52v52.64c0 5.08 1.26 6.48 3.3 8.53l3.2 3.2c2.05 2.05 3.44 3.3 8.53 3.3h23.6a14.26 14.26 0 0 0 14.369-14.15V183.4a14.261 14.261 0 0 0-14.26-14.25" fill="#231f20"></path><path d="M37.992,68.05h141.2v42.84H37.992Z" fill="#00b8d6"></path><path d="M54.952 97.33V81.9h10v3h-6.46v3.15h5.33v3h-5.33v3.36h6.7v3zm24.54.3a6.179 6.179 0 0 1-4.67-1.74 6.657 6.657 0 0 1-1.68-4.82V81.9h3.6v9.14a4.084 4.084 0 0 0 .72 2.6 2.46 2.46 0 0 0 2 .9 2.411 2.411 0 0 0 2-.91 4.007 4.007 0 0 0 .74-2.54v-9.2h3.6v8.94a7 7 0 0 1-1.71 5 6 6 0 0 1-4.58 1.79zm28.67 0a11.326 11.326 0 0 1-4.71-1v-3.1a10.092 10.092 0 0 0 4.21 1.1 3.436 3.436 0 0 0 1.91-.44 1.511 1.511 0 0 0 .39-2.09 2.816 2.816 0 0 0-.94-.7 17.745 17.745 0 0 0-1.95-.77 5.839 5.839 0 0 1-2.69-1.7 3.885 3.885 0 0 1-.93-2.6 4.218 4.218 0 0 1 1.62-3.49 6.709 6.709 0 0 1 4.33-1.29 9.072 9.072 0 0 1 3.5.68v3a8 8 0 0 0-3.36-.76 3.353 3.353 0 0 0-1.82.41 1.339 1.339 0 0 0-.63 1.19 1.318 1.318 0 0 0 .63 1.11 9.474 9.474 0 0 0 2.34 1 6.349 6.349 0 0 1 2.92 1.76 4.07 4.07 0 0 1 1 2.79 4.371 4.371 0 0 1-1.57 3.55 6.333 6.333 0 0 1-4.25 1.34zm20.23 0a7.1 7.1 0 0 1-3.85-1A6.739 6.739 0 0 1 122 93.78a9.3 9.3 0 0 1-.88-4.13 9.061 9.061 0 0 1 .95-4.24 6.857 6.857 0 0 1 2.61-2.8 7.24 7.24 0 0 1 3.76-1 7.127 7.127 0 0 1 3.85 1 6.684 6.684 0 0 1 2.54 2.84 9.36 9.36 0 0 1 .88 4.13 9 9 0 0 1-1 4.24 6.738 6.738 0 0 1-2.61 2.8 7.178 7.178 0 0 1-3.71 1.01zm0-3.1a3.129 3.129 0 0 0 2.66-1.31 6 6 0 0 0 1-3.61 5.922 5.922 0 0 0-1-3.61 3.133 3.133 0 0 0-2.65-1.32 3.07 3.07 0 0 0-2.63 1.31 7.219 7.219 0 0 0 0 7.21 3.1 3.1 0 0 0 2.64 1.33zm21.46 3.1a6.219 6.219 0 0 1-4.68-1.74 6.657 6.657 0 0 1-1.68-4.82V81.9h3.6v9.14a3.994 3.994 0 0 0 .73 2.6 2.46 2.46 0 0 0 2 .9 2.411 2.411 0 0 0 2-.91 4.007 4.007 0 0 0 .74-2.54v-9.2h3.6v8.94a7 7 0 0 1-1.71 5 6 6 0 0 1-4.58 1.79zm-42.16 195.64a12.707 12.707 0 0 1-5.26-1.07v-3.45a11.178 11.178 0 0 0 4.7 1.23 3.76 3.76 0 0 0 2.12-.49 1.57 1.57 0 0 0 .73-1.4 1.548 1.548 0 0 0-.29-.93 3.012 3.012 0 0 0-1.05-.78 19.485 19.485 0 0 0-2.18-.87 6.544 6.544 0 0 1-3-1.88 4.374 4.374 0 0 1-1-2.91 4.719 4.719 0 0 1 1.8-3.89 7.508 7.508 0 0 1 4.83-1.44 10.01 10.01 0 0 1 3.91.76v3.32a9.116 9.116 0 0 0-3.75-.84 3.681 3.681 0 0 0-2 .46 1.519 1.519 0 0 0 0 2.56 10.772 10.772 0 0 0 2.61 1.11 7.173 7.173 0 0 1 3.25 2 4.563 4.563 0 0 1 1.09 3.11 4.9 4.9 0 0 1-1.75 4 7.048 7.048 0 0 1-4.76 1.4zm17.36-.34v-13.8h-4.92v-3.42h13.85v3.42h-4.92v13.8zm19-17.2h4.44l6 17.2h-4.1l-1.12-3.54h-6.23l-1.1 3.54h-4zm0 10.64h4.3l-2.15-6.86zm17.44 6.56v-17.2h5.48a8.3 8.3 0 0 1 5.21 1.47 4.773 4.773 0 0 1 1.9 4 4.911 4.911 0 0 1-.89 2.91 5.793 5.793 0 0 1-2.58 2l4.6 6.83h-4.44l-3.82-6.1h-1.58v6.14zm3.87-14.1v4.9h1.66a3.536 3.536 0 0 0 2.27-.66 2.262 2.262 0 0 0 .81-1.84 2.082 2.082 0 0 0-.8-1.77 3.563 3.563 0 0 0-2.25-.63zm20.13 14.1v-13.8h-5v-3.42h13.85v3.42h-4.85v13.8zm23.13.34a6.917 6.917 0 0 1-5.21-1.94 7.418 7.418 0 0 1-1.88-5.38v-10.22h4v10.2a4.607 4.607 0 0 0 .8 2.9 3 3 0 0 0 4.232.3 3.1 3.1 0 0 0 .3-.3 4.436 4.436 0 0 0 .81-2.83v-10.27h4v10a7.841 7.841 0 0 1-1.9 5.54 6.728 6.728 0 0 1-5.15 2.01zm14.87-17.54h5.5a8.234 8.234 0 0 1 5.19 1.49 4.941 4.941 0 0 1 1.89 4.1 5.191 5.191 0 0 1-1.92 4.27 8.321 8.321 0 0 1-5.34 1.54h-1.43v5.8h-3.9zm3.9 3.1V284h1.66a3.349 3.349 0 0 0 2.27-.7 2.423 2.423 0 0 0 .82-2 2.311 2.311 0 0 0-.79-1.86 3.378 3.378 0 0 0-2.25-.67zm-90.98 43.87l5-5.25a16.016 16.016 0 0 0 2.27-2.92 5.261 5.261 0 0 0 .66-2.54 3 3 0 0 0-.91-2.31 3.35 3.35 0 0 0-2.41-.85 6.615 6.615 0 0 0-4 1.3v-2a5.994 5.994 0 0 1 2-.93 8.639 8.639 0 0 1 2.35-.32 5.414 5.414 0 0 1 3.81 1.35 4.562 4.562 0 0 1 1.46 3.52 6.741 6.741 0 0 1-.8 3.16 16.166 16.166 0 0 1-2.69 3.55l-3.82 4h7.72v1.93h-10.64zm23.34 2.07a5.127 5.127 0 0 1-4.48-2.34 11.6 11.6 0 0 1-1.59-6.59 11.746 11.746 0 0 1 1.58-6.6 5.058 5.058 0 0 1 4.46-2.35 5.131 5.131 0 0 1 4.48 2.33 14.53 14.53 0 0 1 0 13.2 5.08 5.08 0 0 1-4.45 2.35zm0-1.94a3 3 0 0 0 2.77-1.84 14.221 14.221 0 0 0 0-10.35 3 3 0 0 0-5.57 0 14 14 0 0 0 0 10.36 3.048 3.048 0 0 0 2.8 1.83zm12.34-.13l5-5.25a15.459 15.459 0 0 0 2.26-2.92 5.175 5.175 0 0 0 .67-2.54 3 3 0 0 0-.91-2.31 3.35 3.35 0 0 0-2.41-.85 6.674 6.674 0 0 0-4 1.3v-2a6.193 6.193 0 0 1 2-.93 8.645 8.645 0 0 1 2.34-.32 5.418 5.418 0 0 1 3.82 1.35 4.594 4.594 0 0 1 1.46 3.52 6.741 6.741 0 0 1-.8 3.16 16.476 16.476 0 0 1-2.69 3.55l-3.83 4h7.73v1.93h-10.64zm23.34 2.07a5.119 5.119 0 0 1-4.48-2.34 14.509 14.509 0 0 1 0-13.19 5.058 5.058 0 0 1 4.46-2.35 5.141 5.141 0 0 1 4.48 2.33 11.649 11.649 0 0 1 1.6 6.61 11.793 11.793 0 0 1-1.58 6.61 5.091 5.091 0 0 1-4.48 2.33zm0-1.94a3 3 0 0 0 2.76-1.84 11.069 11.069 0 0 0 1-5.18 11.251 11.251 0 0 0-1-5.17 3 3 0 0 0-5.58 0 14.177 14.177 0 0 0 0 10.36 3.079 3.079 0 0 0 2.82 1.83z" fill="#fff"></path></svg> 